<?xml version="1.0" encoding="utf-8"?>
<!-- Generator: Adobe Illustrator 27.0.0, SVG Export Plug-In . SVG Version: 6.00 Build 0)  -->
<svg version="1.1" id="Layer_1" xmlns="http://www.w3.org/2000/svg" xmlns:xlink="http://www.w3.org/1999/xlink" x="0px" y="0px"
	 viewBox="0 0 500 300" style="enable-background:new 0 0 500 300;" xml:space="preserve">
<style type="text/css">
	.st0{fill:#383838;}
	.st1{fill:#C9272D;}
</style>
<g>
	<polygon class="st0" points="22.6,168.1 193.2,168.3 182.9,186.1 12.2,185.9 	"/>
	<polygon class="st0" points="39.5,140.6 210.2,140.8 199.8,158.6 29.2,158.4 	"/>
	<polygon class="st1" points="230.9,130.7 241.5,113.4 327.2,113.8 316.5,131.1 	"/>
	<polygon class="st1" points="207.3,168.5 271.5,140.7 304.1,140.9 243,168.6 293,168.8 282.3,186 196.6,185.6 	"/>
	<path class="st0" d="M320.1,186.2l-18.3-0.1l45-72.3l18.3,0.1L320.1,186.2z"/>
	<path class="st1" d="M476.5,132.7l-71.4-0.3c-1,0-2,0.1-3.1,0.3c-1,0.2-2.4,0.9-4.3,2c-1.9,1.1-3.5,2.3-4.8,3.6
		c-1.3,1.3-2.5,2.7-3.6,4.1l-9.8,15.7c-0.6,1.4-1.1,2.8-1.5,4.1c-0.4,1.3-0.3,2.5,0.3,3.6c0.3,0.6,0.5,1,0.8,1.3
		c0.3,0.3,0.6,0.5,1,0.7c0.4,0.2,0.8,0.3,1.3,0.3c0.5,0.1,1.1,0.2,1.9,0.3l70.8,0.3l-11.1,17.9l-80.4-0.4c-3,0-5.8-0.5-8.2-1.4
		c-2.5-0.9-4.4-2.3-5.7-4c-1.3-1.8-2-3.9-1.9-6.4c0-2.5,1-5.3,3-8.5l19.9-32c2-3.2,4.5-6,7.6-8.5c3.1-2.5,6.4-4.6,9.8-6.3
		c3.5-1.7,7-3,10.6-3.9c3.6-0.9,6.9-1.3,9.9-1.3l80.2,0.4L476.5,132.7z M468.1,146.1l-10.7,17.1l-42.1-0.2l10.7-17.1L468.1,146.1z"
		/>
	<polygon class="st0" points="56.5,113.2 227.2,113.4 216.8,131.2 46.1,131.1 	"/>
</g>
</svg>
